<svg width="122" height="27" viewBox="0 0 122 27" fill="none" xmlns="http://www.w3.org/2000/svg"><path d="M.775 16.877c.403 2.821 2.79 4.433 6.169 4.433 3.224 0 5.673-1.674 5.673-4.495 0-2.108-1.271-3.441-3.689-4.03l-2.852-.651c-.868-.217-1.24-.527-1.24-1.085 0-.868.899-1.302 1.829-1.302 1.271 0 1.922.589 2.17 1.364h3.658c-.465-2.604-2.387-4.278-5.89-4.278-3.1 0-5.518 1.798-5.518 4.495 0 2.325 1.488 3.41 3.596 3.906l2.79.62c.961.248 1.395.558 1.395 1.178 0 .899-.775 1.364-1.953 1.364-1.147 0-2.015-.527-2.325-1.519H.775zm26.087-9.734h-3.875v8.804c-.279 1.209-1.302 1.922-2.48 1.922-1.519 0-2.232-.992-2.232-2.449V7.143h-3.844v9.052c0 3.069 1.767 5.115 4.867 5.115 1.612 0 2.945-.713 3.72-1.581V21h3.844V7.143zm11.096-.062c-.217-.124-.806-.248-1.457-.248-1.364 0-2.51.682-3.1 1.674V7.143h-3.844V21h3.844v-8.587c.28-1.271 1.333-1.953 2.635-1.953.713 0 1.395.155 1.922.465V7.081zM47.493 21l5.27-13.857h-3.875l-3.13 9.207-3.194-9.207h-4.03L43.774 21h3.72zm14.747-4.526c-.31 1.178-1.272 1.736-2.574 1.736-1.705 0-2.883-1.24-3.007-3.317h9.238v-1.178c0-4.061-2.232-6.882-6.293-6.882-3.875 0-6.665 3.069-6.665 7.254 0 4.278 2.697 7.223 6.727 7.223 3.472 0 5.642-1.891 6.138-4.836H62.24zm-2.605-6.51c1.581 0 2.45 1.147 2.48 2.604h-5.363c.341-1.705 1.395-2.604 2.883-2.604zm13.457 16.151l7.223-18.972H76.44l-3.162 9.207-3.193-9.207h-4.061l5.3 13.919-2.014 5.053h3.782zM90.802 21h4.557l-5.828-7.967 5.611-5.89h-4.774l-4.743 5.146V.85h-3.844V21h3.844v-4.371l1.116-1.209L90.802 21zm9.673-13.857h-3.844V21h3.844V7.143zm.341-3.999c0-1.271-1.054-2.201-2.263-2.201-1.24 0-2.294.93-2.294 2.201 0 1.302 1.054 2.201 2.294 2.201 1.209 0 2.263-.899 2.263-2.201zm3.237 13.671c0 3.069 1.767 4.464 4.588 4.464 1.023 0 1.953-.155 2.48-.434v-3.41c-.434.279-1.085.465-1.674.465-.992 0-1.581-.496-1.581-1.581v-6.076h3.038v-3.1h-3.038V3.392h-3.813v3.751h-2.108v3.1h2.108v6.572zm10.066 0c0 3.069 1.767 4.464 4.588 4.464 1.023 0 1.954-.155 2.481-.434v-3.41c-.434.279-1.086.465-1.675.465-.992 0-1.581-.496-1.581-1.581v-6.076h3.038v-3.1h-3.038V3.392h-3.813v3.751h-2.108v3.1h2.108v6.572z" fill="#2D3748"/></svg>