<svg width="122" height="27" viewBox="0 0 122 27" fill="none" xmlns="http://www.w3.org/2000/svg">
<path d="M0.775024 16.877C1.17802 19.698 3.56502 21.31 6.94402 21.31C10.168 21.31 12.617 19.636 12.617 16.815C12.617 14.707 11.346 13.374 8.92803 12.785L6.07602 12.134C5.20802 11.917 4.83602 11.607 4.83602 11.049C4.83602 10.181 5.73502 9.74701 6.66502 9.74701C7.93602 9.74701 8.58703 10.336 8.83503 11.111H12.493C12.028 8.50701 10.106 6.83301 6.60302 6.83301C3.50302 6.83301 1.08502 8.63101 1.08502 11.328C1.08502 13.653 2.57302 14.738 4.68102 15.234L7.47102 15.854C8.43202 16.102 8.86602 16.412 8.86602 17.032C8.86602 17.931 8.09102 18.396 6.91302 18.396C5.76602 18.396 4.89802 17.869 4.58802 16.877H0.775024Z" fill="#2D3748"/>
<path d="M26.8623 7.14301H22.9873V15.947C22.7083 17.156 21.6853 17.869 20.5073 17.869C18.9883 17.869 18.2753 16.877 18.2753 15.42V7.14301H14.4313V16.195C14.4313 19.264 16.1983 21.31 19.2983 21.31C20.9103 21.31 22.2433 20.597 23.0183 19.729V21H26.8623V7.14301Z" fill="#2D3748"/>
<path d="M37.9581 7.08101C37.7411 6.95701 37.1521 6.83301 36.5011 6.83301C35.1371 6.83301 33.9901 7.51501 33.4011 8.50701V7.14301H29.5571V21H33.4011V12.413C33.6801 11.142 34.7341 10.46 36.0361 10.46C36.7491 10.46 37.4311 10.615 37.9581 10.925V7.08101Z" fill="#2D3748"/>
<path d="M47.4932 21L52.7632 7.14301H48.8882L45.7572 16.35L42.5642 7.14301H38.5342L43.7732 21H47.4932Z" fill="#2D3748"/>
<path d="M62.2393 16.474C61.9293 17.652 60.9683 18.21 59.6663 18.21C57.9613 18.21 56.7833 16.97 56.6593 14.893H65.8973V13.715C65.8973 9.65401 63.6653 6.83301 59.6043 6.83301C55.7293 6.83301 52.9393 9.90201 52.9393 14.087C52.9393 18.365 55.6363 21.31 59.6663 21.31C63.1383 21.31 65.3083 19.419 65.8043 16.474H62.2393ZM59.6353 9.96401C61.2163 9.96401 62.0843 11.111 62.1153 12.568H56.7523C57.0933 10.863 58.1473 9.96401 59.6353 9.96401Z" fill="#2D3748"/>
<path d="M73.0917 26.115L80.3147 7.14301H76.4397L73.2777 16.35L70.0847 7.14301H66.0237L71.3247 21.062L69.3097 26.115H73.0917Z" fill="#2D3748"/>
<path d="M90.8022 21H95.3592L89.5312 13.033L95.1422 7.14301H90.3682L85.6252 12.289V0.850006H81.7812V21H85.6252V16.629L86.7412 15.42L90.8022 21Z" fill="#2D3748"/>
<path d="M100.475 7.14301H96.6309V21H100.475V7.14301ZM100.816 3.14401C100.816 1.87301 99.7619 0.943007 98.5529 0.943007C97.3129 0.943007 96.2589 1.87301 96.2589 3.14401C96.2589 4.44601 97.3129 5.34501 98.5529 5.34501C99.7619 5.34501 100.816 4.44601 100.816 3.14401Z" fill="#2D3748"/>
<path d="M104.053 16.815C104.053 19.884 105.82 21.279 108.641 21.279C109.664 21.279 110.594 21.124 111.121 20.845V17.435C110.687 17.714 110.036 17.9 109.447 17.9C108.455 17.9 107.866 17.404 107.866 16.319V10.243H110.904V7.14301H107.866V3.39201H104.053V7.14301H101.945V10.243H104.053V16.815Z" fill="#2D3748"/>
<path d="M114.119 16.815C114.119 19.884 115.886 21.279 118.707 21.279C119.73 21.279 120.661 21.124 121.188 20.845V17.435C120.754 17.714 120.102 17.9 119.513 17.9C118.521 17.9 117.932 17.404 117.932 16.319V10.243H120.97V7.14301H117.932V3.39201H114.119V7.14301H112.011V10.243H114.119V16.815Z" fill="#2D3748"/>
</svg>
